HIERARCHY
ROOT hip
{
  OFFSET 0 90.174 2.4664
  CHANNELS 6 Xposition Yposition Zposition Zrotation Xrotation Yrotation
  JOINT abdomen
  {
    OFFSET 0 -1.186 -1.5018
    CHANNELS 6 Xposition Yposition Zposition Zrotation Xrotation Yrotation
    JOINT abdomen2
    {
      OFFSET 0 9.964 0.2134
      CHANNELS 6 Xposition Yposition Zposition Zrotation Xrotation Yrotation
      JOINT chest
      {
        OFFSET 0 13.134 -3.2573
        CHANNELS 6 Xposition Yposition Zposition Zrotation Xrotation Yrotation
        JOINT neck
        {
          OFFSET 0 20.686 -1.6905
          CHANNELS 6 Xposition Yposition Zposition Zrotation Xrotation Yrotation
          JOINT head
          {
            OFFSET 0 7.238 -0.1237
            CHANNELS 6 Xposition Yposition Zposition Zrotation Xrotation Yrotation
            End Site
            {
              OFFSET 0 0 0
            }
          }
        }
        JOINT lCollar
        {
          OFFSET 1.7069 20.075 5.0056
          CHANNELS 6 Xposition Yposition Zposition Zrotation Xrotation Yrotation
          JOINT lShldr
          {
            OFFSET 13.6458 -0.047 -4.849
            CHANNELS 6 Xposition Yposition Zposition Zrotation Xrotation Yrotation
            JOINT lForeArm
            {
              OFFSET 28.3255 -0.9759 2.2888
              CHANNELS 6 Xposition Yposition Zposition Zrotation Xrotation Yrotation
              JOINT lHand
              {
                OFFSET 22.1583 -0.53 10.8316
                CHANNELS 6 Xposition Yposition Zposition Zrotation Xrotation Yrotation
                JOINT lThumb1
                {
                  OFFSET 0.786 0.112 2.5817
                  CHANNELS 6 Xposition Yposition Zposition Zrotation Xrotation Yrotation
                  JOINT lThumb2
                  {
                    OFFSET 0.3601 -0.878 4.2331
                    CHANNELS 6 Xposition Yposition Zposition Zrotation Xrotation Yrotation
                    JOINT lThumb2_End
                    {
                      OFFSET 1.8127 -1.216 2.2227
                      CHANNELS 6 Xposition Yposition Zposition Zrotation Xrotation Yrotation
                      End Site
                      {
                        OFFSET 0.0181 -0.0122 0.0222
                      }
                    }
                  }
                }
                JOINT lCarpal1
                {
                  OFFSET 0.9571 1.114 1.7695
                  CHANNELS 6 Xposition Yposition Zposition Zrotation Xrotation Yrotation
                  JOINT lIndex1
                  {
                    OFFSET 4.1246 0.487 4.1451
                    CHANNELS 6 Xposition Yposition Zposition Zrotation Xrotation Yrotation
                    JOINT lIndex2
                    {
                      OFFSET 3.4052 -1.454 2.7682
                      CHANNELS 6 Xposition Yposition Zposition Zrotation Xrotation Yrotation
                      JOINT lIndex2_End
                      {
                        OFFSET 1.4531 -1.795 1.2713
                        CHANNELS 6 Xposition Yposition Zposition Zrotation Xrotation Yrotation
                        End Site
                        {
                          OFFSET 0.0145 -0.0179 0.0127
                        }
                      }
                    }
                  }
                  JOINT lMid1
                  {
                    OFFSET 5.6954 0.21 2.1184
                    CHANNELS 6 Xposition Yposition Zposition Zrotation Xrotation Yrotation
                    JOINT lMid2
                    {
                      OFFSET 3.9766 -1.54 2.3863
                      CHANNELS 6 Xposition Yposition Zposition Zrotation Xrotation Yrotation
                      JOINT lMid2_End
                      {
                        OFFSET 1.4042 -1.926 1.125
                        CHANNELS 6 Xposition Yposition Zposition Zrotation Xrotation Yrotation
                        End Site
                        {
                          OFFSET 0.014 -0.0193 0.0113
                        }
                      }
                    }
                  }
                }
                JOINT lCarpal2
                {
                  OFFSET 2.0956 0.66 -0.3894
                  CHANNELS 6 Xposition Yposition Zposition Zrotation Xrotation Yrotation
                  JOINT lRing1
                  {
                    OFFSET 5.0395 -0.09 2.4971
                    CHANNELS 6 Xposition Yposition Zposition Zrotation Xrotation Yrotation
                    JOINT lRing2
                    {
                      OFFSET 3.7921 -1.552 1.4806
                      CHANNELS 6 Xposition Yposition Zposition Zrotation Xrotation Yrotation
                      JOINT lRing2_End
                      {
                        OFFSET 1.4655 -1.808 0.9609
                        CHANNELS 6 Xposition Yposition Zposition Zrotation Xrotation Yrotation
                        End Site
                        {
                          OFFSET 0.0147 -0.0181 0.0096
                        }
                      }
                    }
                  }
                  JOINT lPinky1
                  {
                    OFFSET 4.9141 -1.269 0.3591
                    CHANNELS 6 Xposition Yposition Zposition Zrotation Xrotation Yrotation
                    JOINT lPinky2
                    {
                      OFFSET 3.1477 -1.685 0.8462
                      CHANNELS 6 Xposition Yposition Zposition Zrotation Xrotation Yrotation
                      JOINT lPinky2_End
                      {
                        OFFSET 0.8055 -1.585 0.7955
                        CHANNELS 6 Xposition Yposition Zposition Zrotation Xrotation Yrotation
                        End Site
                        {
                          OFFSET 0.0081 -0.0158 0.008
                        }
                      }
                    }
                  }
                }
              }
            }
          }
        }
        JOINT rCollar
        {
          OFFSET -1.7069 20.075 5.0056
          CHANNELS 6 Xposition Yposition Zposition Zrotation Xrotation Yrotation
          JOINT rShldr
          {
            OFFSET -13.6458 -0.047 -4.849
            CHANNELS 6 Xposition Yposition Zposition Zrotation Xrotation Yrotation
            JOINT rForeArm
            {
              OFFSET -28.3255 -0.9759 2.2888
              CHANNELS 6 Xposition Yposition Zposition Zrotation Xrotation Yrotation
              JOINT rHand
              {
                OFFSET -22.1583 -0.53 10.8316
                CHANNELS 6 Xposition Yposition Zposition Zrotation Xrotation Yrotation
                JOINT rThumb1
                {
                  OFFSET -0.786 0.112 2.5817
                  CHANNELS 6 Xposition Yposition Zposition Zrotation Xrotation Yrotation
                  JOINT rThumb2
                  {
                    OFFSET -0.3601 -0.878 4.2331
                    CHANNELS 6 Xposition Yposition Zposition Zrotation Xrotation Yrotation
                    JOINT rThumb2_End
                    {
                      OFFSET -1.8127 -1.216 2.2227
                      CHANNELS 6 Xposition Yposition Zposition Zrotation Xrotation Yrotation
                      End Site
                      {
                        OFFSET -0.0181 -0.0122 0.0222
                      }
                    }
                  }
                }
                JOINT rCarpal1
                {
                  OFFSET -0.9571 1.114 1.7695
                  CHANNELS 6 Xposition Yposition Zposition Zrotation Xrotation Yrotation
                  JOINT rIndex1
                  {
                    OFFSET -4.1246 0.487 4.1451
                    CHANNELS 6 Xposition Yposition Zposition Zrotation Xrotation Yrotation
                    JOINT rIndex2
                    {
                      OFFSET -3.4052 -1.454 2.7682
                      CHANNELS 6 Xposition Yposition Zposition Zrotation Xrotation Yrotation
                      JOINT rIndex2_End
                      {
                        OFFSET -1.4531 -1.795 1.2713
                        CHANNELS 6 Xposition Yposition Zposition Zrotation Xrotation Yrotation
                        End Site
                        {
                          OFFSET -0.0145 -0.018 0.0127
                        }
                      }
                    }
                  }
                  JOINT rMid1
                  {
                    OFFSET -5.6954 0.21 2.1184
                    CHANNELS 6 Xposition Yposition Zposition Zrotation Xrotation Yrotation
                    JOINT rMid2
                    {
                      OFFSET -3.9766 -1.54 2.3863
                      CHANNELS 6 Xposition Yposition Zposition Zrotation Xrotation Yrotation
                      JOINT rMid2_End
                      {
                        OFFSET -1.4042 -1.926 1.125
                        CHANNELS 6 Xposition Yposition Zposition Zrotation Xrotation Yrotation
                        End Site
                        {
                          OFFSET -0.014 -0.0193 0.0113
                        }
                      }
                    }
                  }
                }
                JOINT rCarpal2
                {
                  OFFSET -2.0956 0.66 -0.3894
                  CHANNELS 6 Xposition Yposition Zposition Zrotation Xrotation Yrotation
                  JOINT rRing1
                  {
                    OFFSET -5.0395 -0.09 2.4971
                    CHANNELS 6 Xposition Yposition Zposition Zrotation Xrotation Yrotation
                    JOINT rRing2
                    {
                      OFFSET -3.7921 -1.552 1.4806
                      CHANNELS 6 Xposition Yposition Zposition Zrotation Xrotation Yrotation
                      JOINT rRing2_End
                      {
                        OFFSET -1.4655 -1.808 0.9609
                        CHANNELS 6 Xposition Yposition Zposition Zrotation Xrotation Yrotation
                        End Site
                        {
                          OFFSET -0.0147 -0.0181 0.0096
                        }
                      }
                    }
                  }
                  JOINT rPinky1
                  {
                    OFFSET -4.9141 -1.269 0.3592
                    CHANNELS 6 Xposition Yposition Zposition Zrotation Xrotation Yrotation
                    JOINT rPinky2
                    {
                      OFFSET -3.1477 -1.685 0.8462
                      CHANNELS 6 Xposition Yposition Zposition Zrotation Xrotation Yrotation
                      JOINT rPinky2_End
                      {
                        OFFSET -0.8055 -1.585 0.7955
                        CHANNELS 6 Xposition Yposition Zposition Zrotation Xrotation Yrotation
                        End Site
                        {
                          OFFSET -0.0081 -0.0158 0.008
                        }
                      }
                    }
                  }
                }
              }
            }
          }
        }
      }
    }
  }
  JOINT lThigh
  {
    OFFSET 8.367 -8.2066 0.5982
    CHANNELS 6 Xposition Yposition Zposition Zrotation Xrotation Yrotation
    JOINT lShin
    {
      OFFSET 2.1923 -43.463 -0.4932
      CHANNELS 6 Xposition Yposition Zposition Zrotation Xrotation Yrotation
      JOINT lFoot
      {
        OFFSET 0.7333 -45.8593 -2.6451
        CHANNELS 6 Xposition Yposition Zposition Zrotation Xrotation Yrotation
        End Site
        {
          OFFSET 2.6618 -4.2699 12.3931
        }
      }
    }
  }
  JOINT rThigh
  {
    OFFSET -8.367 -8.2066 0.5982
    CHANNELS 6 Xposition Yposition Zposition Zrotation Xrotation Yrotation
    JOINT rShin
    {
      OFFSET -2.1923 -43.463 -0.4931
      CHANNELS 6 Xposition Yposition Zposition Zrotation Xrotation Yrotation
      JOINT rFoot
      {
        OFFSET -0.7333 -45.8593 -2.6451
        CHANNELS 6 Xposition Yposition Zposition Zrotation Xrotation Yrotation
        End Site
        {
          OFFSET -2.6618 -4.2699 12.3931
        }
      }
    }
  }
}
MOTION
Frames:	4
Frame Time:	0.0333333
0 90.174 2.4664 0 0 -0 0 -1.186 -1.5018 0 0 -0 0 9.964 0.2134 0 0 -0 0 13.134 -3.2573 0 0 -0 0 20.686 -1.6905 0 0 -0 0 7.238 -0.1237 0 0 -0 1.7069 20.075 5.0056 0 0 -0 13.6458 -0.047 -4.849 1.66051 0.0835086 5.75766 28.3255 -0.9759 2.2888 -0.0175111 0.895433 15.7816 22.1583 -0.53 10.8316 7.95139e-016 -1.98785e-016 -0 0.786 0.112 2.5817 5.46658e-016 -3.97569e-016 -0 0.3601 -0.878 4.2331 5.96354e-016 0 -0 1.8127 -1.216 2.2227 3.97569e-016 1.98785e-016 9.54166e-015 0.9571 1.114 1.7695 1.49089e-016 -3.97569e-016 -0 4.1246 0.487 4.1451 6.4605e-016 0 3.18055e-015 3.4052 -1.454 2.7682 5.96354e-016 0 3.18055e-015 1.4531 -1.795 1.2713 8.94531e-016 -1.98785e-016 6.36111e-015 5.6954 0.21 2.1184 6.4605e-016 0 3.18055e-015 3.9766 -1.54 2.3863 5.96354e-016 0 3.18055e-015 1.4042 -1.926 1.125 8.94531e-016 -1.98785e-016 6.36111e-015 2.0956 0.66 -0.3894 1.49089e-016 -3.97569e-016 -0 5.0395 -0.09 2.4971 6.4605e-016 0 3.18055e-015 3.7921 -1.552 1.4806 5.96354e-016 0 3.18055e-015 1.4655 -1.808 0.9609 8.94531e-016 -1.98785e-016 6.36111e-015 4.9141 -1.269 0.3591 6.4605e-016 0 3.18055e-015 3.1477 -1.685 0.8462 5.96354e-016 0 3.18055e-015 0.8055 -1.585 0.7955 8.94531e-016 -1.98785e-016 6.36111e-015 -1.7069 20.075 5.0056 0 0 -0 -13.6458 -0.047 -4.849 -1.4496 0.0636048 -5.0245 -28.3255 -0.9759 2.2888 -1.74811 1.20616 -16.8394 -22.1583 -0.53 10.8316 -1.19271e-015 1.98785e-016 -3.18055e-015 -0.786 0.112 2.5817 -3.97569e-016 1.98785e-016 -3.18055e-015 -0.3601 -0.878 4.2331 -2.98177e-016 1.98785e-016 -3.18055e-015 -1.8127 -1.216 2.2227 -2.98177e-016 3.97569e-016 -0 -0.9571 1.114 1.7695 4.96962e-016 0 -6.36111e-015 -4.1246 0.487 4.1451 -9.93923e-017 3.97569e-016 -0 -3.4052 -1.454 2.7682 -8.94531e-016 5.96354e-016 -0 -1.4531 -1.795 1.2713 -3.97569e-016 3.97569e-016 -0 -5.6954 0.21 2.1184 -9.93923e-017 3.97569e-016 -0 -3.9766 -1.54 2.3863 -8.94531e-016 5.96354e-016 -0 -1.4042 -1.926 1.125 -3.97569e-016 3.97569e-016 -0 -2.0956 0.66 -0.3894 4.96962e-016 0 -6.36111e-015 -5.0395 -0.09 2.4971 -9.93923e-017 3.97569e-016 -0 -3.7921 -1.552 1.4806 -8.94531e-016 5.96354e-016 -0 -1.4655 -1.808 0.9609 -3.97569e-016 3.97569e-016 -0 -4.9141 -1.269 0.3592 -9.93923e-017 3.97569e-016 -0 -3.1477 -1.685 0.8462 -8.94531e-016 5.96354e-016 -0 -0.8055 -1.585 0.7955 -3.97569e-016 3.97569e-016 -0 8.367 -8.2066 0.5982 -4.66115 -1.03232 0.120763 2.1923 -43.463 -0.4932 0.00990601 1.55097 0.177175 0.7333 -45.8593 -2.6451 4.65196 -0.54114 -0.255042 -8.367 -8.2066 0.5982 4.66115 -1.03222 -0.120763 -2.1923 -43.463 -0.4931 -0.00990459 1.5509 -0.177176 -0.7333 -45.8593 -2.6451 -4.65196 -0.541171 0.255041 
1.7357 59.0683 11.2779 0 38.9981 -0 0 -1.186 -1.5018 0.259336 -4.77614 -0.262189 0 9.964 0.2134 0.499265 -9.55338 -0.505242 -4.44089e-016 13.134 -3.2573 0.499265 -9.55337 -0.505242 0 20.686 -1.6905 -9.50901e-006 0.326957 3.35566e-006 4.44089e-016 7.238 -0.1237 0.148628 0.31299 -0.000404296 1.7069 20.075 5.0056 -20.1002 -4.27543 -23.4473 13.6458 -0.047 -4.849 -54.8124 58.0007 25.5609 28.3255 -0.9759 2.2888 -1.98014 2.52007 -0.298906 22.1583 -0.53 10.8316 24.6417 -18.2035 -33.8389 0.786 0.112 2.5817 6.36111e-015 7.95139e-016 7.95139e-016 0.3601 -0.878 4.2331 0 1.59028e-015 -0 1.8127 -1.216 2.2227 -1.10348e-032 7.95139e-016 7.95139e-016 0.9571 1.114 1.7695 6.36111e-015 0 1.59028e-015 4.1246 0.487 4.1451 3.18055e-015 1.59028e-014 2.06736e-014 3.4052 -1.454 2.7682 -9.54166e-015 1.59028e-015 -7.95139e-016 1.4531 -1.795 1.2713 -3.18055e-015 1.59028e-015 -7.95139e-016 5.6954 0.21 2.1184 3.18055e-015 1.59028e-014 2.06736e-014 3.9766 -1.54 2.3863 -9.54166e-015 1.59028e-015 -7.95139e-016 1.4042 -1.926 1.125 -3.18055e-015 1.59028e-015 -7.95139e-016 2.0956 0.66 -0.3894 6.36111e-015 0 1.59028e-015 5.0395 -0.09 2.4971 3.18055e-015 1.59028e-014 2.06736e-014 3.7921 -1.552 1.4806 -9.54166e-015 1.59028e-015 -7.95139e-016 1.4655 -1.808 0.9609 -3.18055e-015 1.59028e-015 -7.95139e-016 4.9141 -1.269 0.3591 3.18055e-015 1.59028e-014 2.06736e-014 3.1477 -1.685 0.8462 -9.54166e-015 1.59028e-015 -7.95139e-016 0.8055 -1.585 0.7955 -3.18055e-015 1.59028e-015 -7.95139e-016 -1.7069 20.075 5.0056 14.4384 1.47747 -39.9513 -13.6458 -0.047 -4.849 91.6113 -1.40032 71.9697 -28.3255 -0.9759 2.2888 12.8443 44.9374 71.7023 -22.1583 -0.53 10.8316 47.7653 -20.8426 10.7787 -0.786 0.112 2.5817 -5.06802e-006 4.91982e-006 2.32983e-006 -0.3601 -0.878 4.2331 7.68569e-006 -4.15784e-006 -4.18258e-006 -1.8127 -1.216 2.2227 -5.06802e-006 4.91982e-006 2.32983e-006 -0.9571 1.114 1.7695 -1.27222e-014 1.59028e-015 -0 -4.1246 0.487 4.1451 -5.06802e-006 4.91982e-006 2.32983e-006 -3.4052 -1.454 2.7682 7.68569e-006 -4.15784e-006 -4.18258e-006 -1.4531 -1.795 1.2713 -5.06802e-006 4.91982e-006 2.32983e-006 -5.6954 0.21 2.1184 -5.06802e-006 4.91982e-006 2.32983e-006 -3.9766 -1.54 2.3863 7.68569e-006 -4.15784e-006 -4.18258e-006 -1.4042 -1.926 1.125 -5.06802e-006 4.91982e-006 2.32983e-006 -2.0956 0.66 -0.3894 -1.27222e-014 1.59028e-015 -0 -5.0395 -0.09 2.4971 -5.06802e-006 4.91982e-006 2.32983e-006 -3.7921 -1.552 1.4806 7.68569e-006 -4.15784e-006 -4.18258e-006 -1.4655 -1.808 0.9609 -5.06802e-006 4.91982e-006 2.32983e-006 -4.9141 -1.269 0.3592 -5.06802e-006 4.91982e-006 2.32983e-006 -3.1477 -1.685 0.8462 7.68569e-006 -4.15784e-006 -4.18258e-006 -0.8055 -1.585 0.7955 -5.06802e-006 4.91982e-006 2.32983e-006 8.367 -8.2066 0.5982 57.5378 -25.877 24.6038 2.1923 -43.463 -0.4932 5.90743 84.1084 -0.434517 0.7333 -45.8593 -2.6451 -56.6365 42.9332 67.3862 -8.367 -8.2066 0.5982 -57.5561 -25.8659 -24.6309 -2.1923 -43.463 -0.4931 -6.04274 84.0963 0.555808 -0.7333 -45.8593 -2.6451 56.6039 42.9591 -67.3769 
1.73576 58.9957 11.5981 0 37.564 -0 0 -1.186 -1.5018 0.257287 -4.44412 -0.264283 -2.22045e-016 9.964 0.2134 0.496188 -8.88935 -0.510794 0 13.134 -3.2573 0.496188 -8.88935 -0.510794 0 20.686 -1.6905 -1.11688e-006 0.49174 3.08586e-006 0 7.238 -0.1237 0.295385 0.623551 -0.0291936 1.7069 20.075 5.0056 -19.8223 -4.90579 -23.9215 13.6458 -0.047 -4.849 -55.0947 57.9497 25.6646 28.3255 -0.9759 2.2888 -2.08834 2.53666 -0.803905 22.1583 -0.53 10.8316 24.4107 -17.9811 -33.3517 0.786 0.112 2.5817 -1.7866e-006 -1.30736e-006 -1.54298e-006 0.3601 -0.878 4.2331 6.36111e-015 2.38542e-015 -7.95139e-016 1.8127 -1.216 2.2227 6.36111e-015 0 1.59028e-015 0.9571 1.114 1.7695 3.18055e-015 -7.95139e-016 -0 4.1246 0.487 4.1451 -1.7866e-006 -1.30736e-006 -1.54298e-006 3.4052 -1.454 2.7682 -0 0 7.95139e-016 1.4531 -1.795 1.2713 0 1.59028e-015 -0 5.6954 0.21 2.1184 -1.7866e-006 -1.30736e-006 -1.54298e-006 3.9766 -1.54 2.3863 -0 0 7.95139e-016 1.4042 -1.926 1.125 0 1.59028e-015 -0 2.0956 0.66 -0.3894 3.18055e-015 -7.95139e-016 -0 5.0395 -0.09 2.4971 -1.7866e-006 -1.30736e-006 -1.54298e-006 3.7921 -1.552 1.4806 -0 0 7.95139e-016 1.4655 -1.808 0.9609 0 1.59028e-015 -0 4.9141 -1.269 0.3591 -1.7866e-006 -1.30736e-006 -1.54298e-006 3.1477 -1.685 0.8462 -0 0 7.95139e-016 0.8055 -1.585 0.7955 0 1.59028e-015 -0 -1.7069 20.075 5.0056 14.1769 1.31647 -39.3231 -13.6458 -0.047 -4.849 91.6023 -1.70933 72.127 -28.3255 -0.9759 2.2888 12.8544 44.7279 71.6024 -22.1583 -0.53 10.8316 47.5967 -20.998 10.6612 -0.786 0.112 2.5817 6.36111e-015 -1.59028e-015 -3.18055e-015 -0.3601 -0.878 4.2331 -6.36111e-015 -3.18055e-015 -3.18055e-015 -1.8127 -1.216 2.2227 -3.18055e-015 -1.59028e-015 -3.18055e-015 -0.9571 1.114 1.7695 6.36111e-015 -1.59028e-015 -1.59028e-015 -4.1246 0.487 4.1451 -3.18055e-015 -1.59028e-015 -3.18055e-015 -3.4052 -1.454 2.7682 -3.18055e-015 0 -0 -1.4531 -1.795 1.2713 -3.18055e-015 -4.77083e-015 -3.18055e-015 -5.6954 0.21 2.1184 -3.18055e-015 -1.59028e-015 -3.18055e-015 -3.9766 -1.54 2.3863 -3.18055e-015 0 -0 -1.4042 -1.926 1.125 -3.18055e-015 -4.77083e-015 -3.18055e-015 -2.0956 0.66 -0.3894 6.36111e-015 -1.59028e-015 -1.59028e-015 -5.0395 -0.09 2.4971 -3.18055e-015 -1.59028e-015 -3.18055e-015 -3.7921 -1.552 1.4806 -3.18055e-015 0 -0 -1.4655 -1.808 0.9609 -3.18055e-015 -4.77083e-015 -3.18055e-015 -4.9141 -1.269 0.3592 -3.18055e-015 -1.59028e-015 -3.18055e-015 -3.1477 -1.685 0.8462 -3.18055e-015 0 -0 -0.8055 -1.585 0.7955 -3.18055e-015 -4.77083e-015 -3.18055e-015 8.367 -8.2066 0.5982 57.4874 -24.0499 24.2716 2.1923 -43.463 -0.4932 5.16573 83.5416 0.217594 0.7333 -45.8593 -2.6451 -55.5074 43.6511 66.5994 -8.367 -8.2066 0.5982 -57.5002 -24.0432 -24.2895 -2.1923 -43.463 -0.4931 -5.29693 83.5309 -0.0995213 -0.7333 -45.8593 -2.6451 55.4833 43.67 -66.5946 
1.73583 58.9237 11.9137 0 36.1262 -0 0 -1.186 -1.5018 0.255236 -4.11162 -0.26634 2.22045e-016 9.964 0.2134 0.493163 -8.22437 -0.516261 -4.44089e-016 13.134 -3.2573 0.493163 -8.22437 -0.51626 0 20.686 -1.6905 -8.71242e-006 0.656706 1.42101e-006 4.44089e-016 7.238 -0.1237 0.442396 0.934217 -0.0587979 1.7069 20.075 5.0056 -19.5491 -5.53903 -24.3936 13.6458 -0.047 -4.849 -55.3764 57.8984 25.7678 28.3255 -0.9759 2.2888 -2.19641 2.55421 -1.30903 22.1583 -0.53 10.8316 24.178 -17.7604 -32.8639 0.786 0.112 2.5817 -6.36111e-015 1.59028e-015 -0 0.3601 -0.878 4.2331 -3.18055e-015 -2.38542e-015 7.95139e-016 1.8127 -1.216 2.2227 0 0 -0 0.9571 1.114 1.7695 -6.36111e-015 1.59028e-015 -0 4.1246 0.487 4.1451 -3.18055e-015 3.18055e-015 1.19271e-014 3.4052 -1.454 2.7682 0 0 -0 1.4531 -1.795 1.2713 2.20695e-032 7.95139e-016 -1.59028e-015 5.6954 0.21 2.1184 -3.18055e-015 3.18055e-015 1.19271e-014 3.9766 -1.54 2.3863 0 0 -0 1.4042 -1.926 1.125 2.20695e-032 7.95139e-016 -1.59028e-015 2.0956 0.66 -0.3894 -6.36111e-015 1.59028e-015 -0 5.0395 -0.09 2.4971 -3.18055e-015 3.18055e-015 1.19271e-014 3.7921 -1.552 1.4806 0 0 -0 1.4655 -1.808 0.9609 2.20695e-032 7.95139e-016 -1.59028e-015 4.9141 -1.269 0.3591 -3.18055e-015 3.18055e-015 1.19271e-014 3.1477 -1.685 0.8462 0 0 -0 0.8055 -1.585 0.7955 2.20695e-032 7.95139e-016 -1.59028e-015 -1.7069 20.075 5.0056 13.9172 1.15247 -38.6954 -13.6458 -0.047 -4.849 91.5942 -2.01844 72.2843 -28.3255 -0.9759 2.2888 12.8639 44.5183 71.5029 -22.1583 -0.53 10.8316 47.4275 -21.153 10.543 -0.786 0.112 2.5817 2.14916e-006 -2.92766e-006 -1.27649e-006 -0.3601 -0.878 4.2331 1.16075e-006 1.39976e-006 1.02022e-006 -1.8127 -1.216 2.2227 9.26679e-007 -4.45773e-007 1.30865e-006 -0.9571 1.114 1.7695 9.54166e-015 1.59028e-015 3.18055e-015 -4.1246 0.487 4.1451 2.14916e-006 -2.92766e-006 -1.27649e-006 -3.4052 -1.454 2.7682 1.16075e-006 1.39976e-006 1.02022e-006 -1.4531 -1.795 1.2713 9.26679e-007 -4.45773e-007 1.30865e-006 -5.6954 0.21 2.1184 2.14916e-006 -2.92766e-006 -1.27649e-006 -3.9766 -1.54 2.3863 1.16075e-006 1.39976e-006 1.02022e-006 -1.4042 -1.926 1.125 9.26679e-007 -4.45773e-007 1.30865e-006 -2.0956 0.66 -0.3894 9.54166e-015 1.59028e-015 3.18055e-015 -5.0395 -0.09 2.4971 2.14916e-006 -2.92766e-006 -1.27649e-006 -3.7921 -1.552 1.4806 1.16075e-006 1.39976e-006 1.02022e-006 -1.4655 -1.808 0.9609 9.26679e-007 -4.45773e-007 1.30865e-006 -4.9141 -1.269 0.3592 2.14916e-006 -2.92766e-006 -1.27649e-006 -3.1477 -1.685 0.8462 1.16075e-006 1.39976e-006 1.02022e-006 -0.8055 -1.585 0.7955 9.26679e-007 -4.45773e-007 1.30865e-006 8.367 -8.2066 0.5982 57.4489 -22.2236 23.9443 2.1923 -43.463 -0.4932 4.54436 82.9737 0.750227 0.7333 -45.8593 -2.6451 -54.3527 44.3607 65.7864 -8.367 -8.2066 0.5982 -57.4566 -22.2215 -23.9531 -2.1923 -43.463 -0.4931 -4.67137 82.9643 -0.635629 -0.7333 -45.8593 -2.6451 54.3379 44.373 -65.7868 
